<?xml version="1.0" encoding="utf-8"?>
<!-- Generator: Adobe Illustrator 27.5.0, SVG Export Plug-In . SVG Version: 6.00 Build 0)  -->
<svg version="1.1" xmlns="http://www.w3.org/2000/svg" xmlns:xlink="http://www.w3.org/1999/xlink" x="0px" y="0px"
	 viewBox="0 0 2200 2200" style="enable-background:new 0 0 2200 2200;" xml:space="preserve">
<g id="background">
	<rect y="0" style="fill:#FFFFFF;" width="2200" height="2200"/>
</g>
<g id="Objects">
	<g>
		<path d="M1914.115,1100c0.002-71.787-9.349-143.02-27.789-211.695c-17.889-66.618-44.319-130.85-78.558-190.912
			c-67.477-118.372-164.45-218.818-280.435-290.479c-128.137-79.179-275.885-121.03-427.277-121.03c-0.004,0-0.009,0-0.014,0
			c-0.008,0-0.015,0-0.022,0c-0.007,0-0.014,0-0.021,0c-95.886,0-189.758,16.507-279.008,49.063
			c-86.245,31.46-166.105,77.089-237.362,135.621c-63.771,52.369-119.061,113.836-164.332,182.696
			c-87.28,132.721-133.414,287.2-133.414,446.735c0,0.534,0.009,1.067,0.01,1.602h-0.01v0.884l0.016,0.033
			c0.329,109.019,21.84,214.781,63.971,314.387c41.006,96.946,99.708,184.011,174.475,258.776
			c74.766,74.764,161.83,133.462,258.773,174.463c100.368,42.45,206.982,63.974,316.88,63.971c0,0,0,0,0.001,0c0,0,0,0,0,0
			c0,0,0,0,0,0c109.641-0.005,216.022-21.433,316.189-63.688c96.746-40.813,183.687-99.252,258.406-173.693
			c74.706-74.429,133.462-161.133,174.635-257.705c42.614-99.953,64.44-206.177,64.873-315.697c0.003-0.262,0.001-0.526,0.003-0.789
			l0.008-0.018v-0.897h-0.005C1914.111,1101.084,1914.115,1100.541,1914.115,1100z M473.929,1028.42
			c-1.652-6.821-2.038-14.007-0.215-20.785c2.805-10.576,9.468-17.021,17.684-20.139c-2.32,22.218-3.973,44.612-4.91,67.146
			C480.747,1046.824,476.306,1038.219,473.929,1028.42z M705.789,475.475c-2.448,2.714-4.882,5.447-7.295,8.209
			c-10.034,3.9-20.055,9.268-30.343,11.985c-27.109,7.202-54-4.207-78.446-19.728c19.069-15.613,38.758-30.294,59.024-44.019
			C663.359,447.485,682.527,462.088,705.789,475.475z M944.853,1745.702c-5.746-6.702-11.486-13.396-17.224-20.089
			c-6.039-14.428-11.889-29.647-17.541-45.641c60.802,7.242,123.089,10.971,185.912,11.124v214.926
			c-34.875-1.479-68.88-22.341-101.134-62.081c-17.922-22.082-34.856-49.415-50.672-81.712c0.193-0.192,0.392-0.38,0.576-0.578
			C948.893,1757.234,948.788,1750.307,944.853,1745.702z M825.915,1100c0-48.917,1.503-97.349,4.45-144.816
			c4.708,0.707,9.436,1.397,14.187,2.068c80.471,11.355,165.05,17.185,251.448,17.36v359.01
			c-22.515-0.038-44.941-0.391-67.227-1.055c-44.066-16.971-88.133-33.934-132.182-50.91c-3.495-1.339-7.116-2.784-9.607-5.567
			c-5.065-5.651-3.663-14.588-6.991-21.432c-2.281-4.688-6.613-8.016-10.862-11.051c-12.769-9.142-26.241-17.276-40.239-24.377
			C826.92,1180.1,825.915,1140.276,825.915,1100z M783.2,526.621c-1.737-5.405-5.985-9.631-11.24-11.787
			c-9.084-3.722-19.134-1.845-28.636,0.086c-8.038-2.373-3.691-13.519-4.42-22.469c24.346,11.157,51.89,21.221,82.291,30
			c5.21,1.505,10.481,2.963,15.808,4.376c-7.802,14.661-14.198,30.06-19.082,45.918c-0.67,2.135-1.298,4.563-0.293,6.572
			c1.088,2.26,3.788,3.223,6.237,3.893c10.193,2.888,20.511,5.337,30.913,7.325c7.325,1.36,14.923,2.533,22.122,0.544
			c0.968-0.263,1.924-0.603,2.858-1.004c-4.926,17.763-9.597,36.141-14.004,55.094c-19.342-18.302-48.844-24.186-75.463-20.059
			c-15.23,2.37-30.76,8.097-40.455,20.067c-9.749,12.055-12.077,28.304-18.544,42.364c-6.542,14.232-17.579,26.33-31.135,34.181
			c-2.553,1.502-5.491,2.885-8.398,2.284c-2.027-0.429-3.722-1.727-5.341-3.024c-17.117-13.889-32.583-32.272-34.653-54.227
			c-2.864-30.599,21.032-57.38,47.009-73.854c25.955-16.431,55.878-27.317,77.983-48.66
			C781.355,539.824,785.752,534.633,783.2,526.621z M888.127,561.301c-1.504-7.476,0.098-14.815,2.463-22.16
			c1.422,0.28,2.844,0.559,4.272,0.833C892.573,546.968,890.328,554.076,888.127,561.301z M673.567,875.297
			c17.16-30.256,57.498-35.093,91.003-44.531c16.56-4.687,32.561-11.24,47.63-19.595c5.052-2.756,9.299-6.928,11.658-12.162
			c4.944-10.832-2.553-14.769-6.028-21.032c-6.21-11.176,2.349-25.322,13.192-32.122c5.032-3.152,10.552-5.432,16.063-7.719
			c-11.274,65.83-19.378,135.666-24.139,207.808c-57.027-8.878-110.768-20.436-160.421-34.501
			C665.342,899.06,667.377,886.239,673.567,875.297z M855.858,734.313c3.295-1.565,6.491-3.305,9.465-5.436
			c23.277-16.672,24.381-53.78,6.978-76.502c9.049-39.586,19.247-76.667,30.491-110.916c11.404,2.084,22.99,3.98,34.737,5.689
			c2.259,9.876,9.258,18.966,17.562,25.179c11.637,8.727,25.701,13.458,38.552,20.281c9.648,5.086,20.448,11.616,30.64,7.765
			c10.946-4.102,14.463-17.56,16.472-29.05c0.806-4.708,1.618-9.416,2.43-14.125c17.431,0.828,35.056,1.269,52.816,1.326v408.088
			c-86.025-0.175-170.228-5.978-250.331-17.282c-4.952-0.699-9.881-1.418-14.786-2.156
			C835.743,873.167,844.127,801.591,855.858,734.313z M951.324,423.751c0.589,0.567,1.118,1.192,1.527,1.925
			c1.026,1.863,1.235,4.06,1.297,6.174c0.419,11.762-2.344,23.608-7.932,33.989c-4.939,9.209-12.348,18.627-10.214,28.882
			c1.298,6.132,5.923,11.26,6.823,17.476c1.109,7.828-3.893,15.09-5.504,22.813c-0.273,1.318-0.442,2.636-0.516,3.952
			c-10.63-1.568-21.12-3.295-31.463-5.172c6.947-20.609,14.272-40.178,21.967-58.587
			C935.03,456.729,943.044,439.569,951.324,423.751z M1730.941,774.212c0.944,5.041,3.453,9.631,5.523,14.34
			c3.743,8.516,6.028,18.394,2.617,27.06c-3.411,8.623-14.339,14.629-22.458,10.125c-3.764-2.091-6.253-5.942-8.033-9.878
			c-8.398-18.48-5.105-42.236-18.758-57.283c-9.792-10.8-25.944-14.082-35.511-25.054c-9.063-10.339-10.006-26.974-2.049-38.192
			c7.99-11.197,24.207-15.712,36.745-10.092c1.759,0.804,3.432,1.759,4.987,2.853c7.679,5.373,16.367,9.202,25.526,11.154
			c4.269,0.901,8.58,3.035,11.637,7.529c4.086,5.974,4.73,13.567,4.462,20.785c-0.333,8.945-1.362,17.857-3.014,26.62
			C1731.359,760.795,1729.707,767.573,1730.941,774.212z M1526.358,815.214c4.708,3.078,10.736-1.973,12.763-7.186
			c2.027-5.223,2.638-11.465,6.971-15.026c6.296-5.234,16.259-0.933,21.247,5.545c4.955,6.532,7.197,14.822,12.28,21.247
			c6.403,8.119,16.763,12.366,27.038,13.374c10.307,0.965,20.646-0.987,30.706-3.325c1.673-0.397,3.646-0.729,4.901,0.44
			c0.794,0.751,1.019,1.898,1.191,2.971c2.113,12.87,1.716,26.137-1.03,38.911c-0.28,1.297-0.683,2.53-1.185,3.701
			c-8.846,3.661-17.951,7.237-27.31,10.724c-20.279-6.812-35.791-17.415-52.898-22.297c-4.354-1.233-8.912-2.488-13.31-1.426
			c-5.652,1.405-9.621,6.221-13.911,10.135c-14.758,13.492-37.527,17.428-55.975,9.685c-13.138-5.566-23.606-16.892-28.733-30.181
			c-3.636-9.481-13.181-15.337-23.274-13.953c-19.224,2.599-38.443,5.208-57.667,7.821c-2.488-22.094-5.295-43.882-8.429-65.28
			c4.934-6.004,9.892-11.98,16.16-16.555c9.191-6.714,22.523-9.62,31.768-2.992c4.376,3.164,7.261,8.022,11.433,11.476
			c4.14,3.432,9.728,5.33,15.005,4.269c5.255-1.073,9.921-5.502,10.425-10.843c0.268-2.81-0.525-5.652-0.418-8.494
			c0.311-7.497,7.347-13.524,14.79-14.554c7.454-1.019,14.93,2.016,21.118,6.242c21.043,14.458,29.301,41.002,43.437,62.26
			C1524.266,813.144,1525.146,814.399,1526.358,815.214z M1313.839,555.161c3.41,13.106,13.836,23.048,23.799,32.272
			c1.212,1.115,2.467,2.263,4.001,2.831c5.212,1.963,10.232-3.078,15.541-4.665c4.151-1.255,8.612-0.375,12.838,0.504
			c3.968,0.837,8.097,1.759,11.261,4.29c4.269,3.454,5.942,9.331,5.609,14.79v0.086c-0.236,3.743-3.336,6.703-7.1,7.057
			c-13.396,1.212-22.898,9.224-29.086,17.203c-5.615,7.213-9.3,16.002-14.704,23.222c-9.13-40.181-19.478-77.931-30.88-112.78
			c2.551-0.489,5.09-0.989,7.622-1.497C1312.292,544.077,1312.413,549.723,1313.839,555.161z M1329.372,659.746
			c-0.086,0.068-0.164,0.144-0.25,0.211c-12.012,9.374-30.309,9.106-40.359,20.549c-9.46,10.757-6.146,30.02,6.381,36.991
			c2.853,1.609,6.156,2.692,8.291,5.212c4,4.741,1.577,12.591-3.453,16.281c-4.998,3.657-11.615,4.204-17.825,4.29
			c-6.242,0.086-12.709-0.15-18.404,2.317c-8.141,3.539-13.246,12.141-14.672,20.914c-3.765,23.413,17.085,46.022,40.563,49.389
			c23.467,3.389,47.073-8.891,63.021-26.47c0.054-0.059,0.106-0.12,0.159-0.179c2.727,19.117,5.199,38.531,7.412,58.198
			c-16.06,2.183-32.122,4.367-48.198,6.547c-18.501,2.51-38.675,5.877-51.105,19.82c-10.49,11.755-13.021,28.4-19.177,42.922
			c-7.275,17.059-19.707,31.273-30.093,46.662c-35.449,2.067-71.393,3.138-107.662,3.212V558.524
			c67.401-0.222,132.846-6.043,193.192-17.067C1309.136,577.841,1319.924,617.456,1329.372,659.746z M914.318,1659.892
			c6.781-12.39,16.618-22.771,25.199-33.989c13.311-17.351,23.713-36.919,30.703-57.639c2.218-6.614,4.29-13.667,9.334-18.481
			c3.872-3.683,9.021-5.609,13.73-8.162c24.152-13.164,34.721-42.11,39.661-69.171c4.939-27.083,6.572-55.756,20.678-79.364
			c4.479-7.493,10.193-14.399,13.06-22.645c2.888-8.225,2.135-18.648-4.709-24.09c-2.386-1.905-5.274-3.035-8.121-4.123
			c-0.953-0.367-1.905-0.734-2.857-1.101c14.952,0.305,29.959,0.471,45.004,0.496v341.474
			c-63.137-0.154-125.723-3.942-186.79-11.291C910.505,1667.665,912.252,1663.647,914.318,1659.892z M1096,550.524
			c-17.298-0.056-34.468-0.476-51.45-1.269c0.416-2.418,0.833-4.836,1.248-7.255c1.381-7.911,3.098-16.471,9.23-21.683
			c7.514-6.362,19.088-5.442,27.208-11.009c7.604-5.203,10.289-14.497,13.764-23.284V550.524z M1104,550.524v-78.776
			c13.051-16.262,35.839-26.321,39.287-46.763c2.198-13.018-4.877-26.12-14.567-35.098c-7.303-6.706-15.974-11.598-24.72-16.346
			v-79.564c48.792,2.106,96.591,42.894,138.471,118.283c19.026,34.245,36.545,75.169,52.168,121.529
			C1235.08,544.595,1170.514,550.304,1104,550.524z M1096,369.18c-0.234-0.13-0.47-0.259-0.704-0.39
			c-9.586-5.358-18.836-11.302-27.71-17.769c-10.276-7.493-23.294-10.297-35.601-7.116c-11.946,3.101-23.803,6.534-35.569,10.259
			c3.695-4.471,7.426-8.714,11.193-12.717c28.445-30.227,58.162-46.172,88.391-47.466V369.18z M1104,1691.096
			c62.826-0.156,125.114-3.889,185.917-11.134c-24.783,70.124-53.367,125.361-85.016,164.255
			c-32.185,39.553-66.112,60.321-100.901,61.804V1691.096z M1104,1683.096v-341.474c88.779-0.151,176.209-5.212,259.071-14.778
			c-12.866,129.007-36.742,247.177-70.222,344.698C1231.13,1679.056,1167.848,1682.936,1104,1683.096z M1104,1333.622v-359.01
			c34.465-0.07,68.636-1.046,102.376-2.909c-1.595,2.693-3.095,5.44-4.465,8.261c-14.404,29.666-13.085,64.319-9.61,97.138
			c4.226,40.037,14.511,84.89,49.164,105.375c26.684,15.766,60.232,12.227,90.649,6.264c13.377-2.622,26.996-5.603,40.589-7.387
			c-1.594,46.778-4.556,92.696-8.834,137.348C1280.812,1328.358,1193.096,1333.47,1104,1333.622z M1380.736,1180.451
			c14.622-1.349,29.151-0.953,43.25,3.141c4.73,1.384,9.46,3.218,13.106,6.51c16.431,14.747,0.654,42.525,6.928,63.708
			c3.518,11.883,13.728,20.399,20.217,30.974c3.553,5.751,5.914,11.939,7.335,18.381c-32.233,5.607-65.502,10.475-99.582,14.575
			C1376.233,1273.089,1379.167,1227.194,1380.736,1180.451z M1678.999,964.208c6.663,1.653,13.206,3.752,19.591,6.251
			c2.74,22.434,4.761,45.049,6.072,67.777C1692.722,1014.911,1684.029,989.909,1678.999,964.208z M1536.483,448.135
			c4.15,3.743,7.829,9.02,6.768,14.522c-0.719,3.689-3.432,6.617-6.006,9.331c-6.435,6.768-12.86,13.525-19.305,20.303
			c-1.598,1.683-3.21,3.366-4.854,5.016c-6.178-7.441-12.467-14.723-18.87-21.83c15.554-8.95,29.278-18.443,41.042-28.403
			C1535.67,447.424,1536.082,447.775,1536.483,448.135z M1507.229,502.771c-2.045,1.742-4.177,3.37-6.451,4.802
			c-5.609,3.539-12.473,5.856-18.855,4.076c-6.36-1.813-11.412-8.956-9.127-15.165c1.384-3.797,4.966-6.306,7.164-9.717
			c0.946-1.446,1.598-2.978,1.997-4.559c1.72-0.905,3.419-1.817,5.1-2.734C1493.912,487.042,1500.633,494.816,1507.229,502.771z
			 M1435.044,441.935c-12.935-3.389-26.084-6.575-39.458-6.8c-13.396-0.225-27.188,2.724-37.999,10.607
			c-5.609,4.108-10.243,9.406-14.468,14.929c-15.342,20.217-25.517,44.339-29.352,69.44c-3.707,0.755-7.439,1.485-11.188,2.199
			c-15.875-47.279-33.715-89.02-53.113-123.936c-31.834-57.305-67.33-95.285-104.444-112.277
			c96.729,9.505,190.27,49.575,272.874,117.313c13.794,11.31,27.224,23.354,40.267,36.072
			C1450.819,446.188,1442.868,443.99,1435.044,441.935z M1001.783,335.964c-6.495,6.902-12.883,14.477-19.156,22.712
			c-10.556,3.584-21.031,7.41-31.409,11.495c-11.302,4.479-24.09,11.113-25.973,23.148c-1.758,11.218,7.514,21.536,17.936,26.036
			c0.383,0.162,0.773,0.322,1.165,0.482c-8.43,16.085-16.579,33.521-24.418,52.28c-7.902,18.903-15.417,39.006-22.532,60.194
			c-1.395-0.266-2.789-0.534-4.179-0.805c2.69-7.593,5.322-15.246,5.322-23.118c0.021-6.153-1.611-12.202-3.579-18.041
			c-4.96-14.713-12.181-28.422-20.427-41.587c-8.1-12.913-22.98-20.155-38.133-18.418c-12.306,1.402-24.466,4.207-36.124,8.372
			c-3.872,1.381-7.828,3.035-10.444,6.174c-4.207,5.044-3.683,12.788-0.544,18.564c3.139,5.776,8.413,10.025,13.52,14.127
			c10.779,8.644,21.599,17.246,32.378,25.89c2.679,2.135,5.462,4.479,6.467,7.744c0.812,2.776,0.19,5.601-0.932,8.316
			c-5.836-1.535-11.611-3.119-17.307-4.764c-40.46-11.684-75.709-25.626-104.918-41.361
			c52.393-56.446,110.924-100.548,174.035-131.098c52.291-25.313,106.711-40.787,162.31-46.218
			C1036.721,304.377,1018.983,317.687,1001.783,335.964z M713.061,479.535c-0.062,0.009-0.125,0.017-0.187,0.027
			c0.026-0.029,0.052-0.058,0.078-0.086C712.987,479.496,713.024,479.515,713.061,479.535z M591.712,1164.373
			c-15.069-22.18-33.881-47.126-50.355-60.651c-15.7-12.904-33.535-25.052-47.19-39.815c0.877-26.336,2.702-52.495,5.477-78.4
			c11.471-1.365,24.295,2.31,33.701,9.43c16.066,12.173,25.193,31.114,35.854,48.285c10.371,2.842,19.563-8.355,21.365-18.941
			c1.823-10.596-0.483-21.772,2.681-32.047c7.744-25.226,41.839-30.996,57.723-52.049c4.716-6.255,7.523-13.435,9.622-20.975
			c50.103,14.179,104.319,25.821,161.834,34.748c-2.987,47.867-4.51,96.712-4.51,146.043c0,38.894,0.939,77.368,2.775,115.213
			c-31.544-14.875-65.545-24.573-100.178-28.617c-11.93-1.381-24.006,0.565-34.889,5.672c-17.602,8.246-38.552,20.385-47.426,31.08
			c-6.404,7.702-11.93,17.455-9.941,27.271c2.198,10.862,13.06,18.836,13.709,29.908c0.102,1.775-0.062,3.482-0.428,5.14
			c-26.154-6.042-51.37-12.619-75.486-19.718c-22.04-6.488-42.951-13.343-62.687-20.523c-4.663-34.039-7.677-68.556-9.014-103.455
			c22.441,12.853,38.352,27.575,49.443,40.881c4.601,5.556,9.899,10.339,15.67,14.297
			C580.58,1211.638,606.074,1185.555,591.712,1164.373z M563.792,1273.623c23.895,7.034,48.861,13.558,74.744,19.56
			c-3.396,6.118-8.489,11.857-11.473,18.257c-6.718,14.378-2.386,31.247,2.03,46.505c7.095,24.362,14.63,49.582,31.373,68.648
			c19.192,21.892,48.033,32.838,69.527,52.47c24.445,22.332,37.694,54.27,47.405,85.915c9.42,30.717,16.402,62.508,30.814,91.15
			c-59.856-11.469-116.621-26.39-169.244-44.521c-3.273-1.128-6.52-2.269-9.751-3.419c-36.036-58.819-65.495-123.811-87.884-194.055
			c-16.479-51.704-28.727-105.086-36.7-159.729C523.36,1261.117,543.091,1267.529,563.792,1273.623z M636.361,1619.17
			c54.839,18.896,114.132,34.317,176.697,46.01c19.507,34.004,49.018,61.376,79.053,86.76c9.146,7.744,19.088,15.676,30.976,17.246
			c4.83,0.633,9.985-0.269,14.441-2.357c34.907,71.014,74.853,117.721,117.323,137.101c-65.781-6.395-129.679-26.817-190.503-60.956
			c-72.206-40.527-137.074-98.574-192.803-172.527c-12.461-16.536-24.319-33.684-35.571-51.41
			C636.104,1619.08,636.232,1619.125,636.361,1619.17z M1298.772,1678.874c16.802-2.101,33.493-4.456,50.04-7.094
			c76.703-12.226,149.001-29.936,214.883-52.638c0.111-0.038,0.22-0.077,0.331-0.115c-11.49,18.102-23.61,35.603-36.36,52.46
			c-55.693,73.635-120.47,131.424-192.528,171.764c-60.675,33.968-124.408,54.297-190.01,60.677
			C1203.199,1877.424,1256.57,1799.825,1298.772,1678.874z M1561.089,1611.579c-65.444,22.552-137.289,40.148-213.536,52.301
			c-15.183,2.42-30.484,4.612-45.885,6.578c33.164-97.809,56.802-215.876,69.531-344.568c34.792-4.155,68.752-9.109,101.642-14.828
			c1.733,16.49-1.814,34.12-6.995,50.128c-8.119,25.054-19.885,49.668-20.067,75.977c-0.257,36.144,21.257,71.998,24.132,106.576
			c1.212,14.608,14.254,25.151,28.818,23.628c41.603-4.312,81.565-27.499,103.52-63.311c7.508-12.248,13.074-25.719,21.718-37.195
			c7.208-9.55,16.3-17.402,25.458-25.179c-21.047,59.753-47.363,115.453-78.63,166.49
			C1567.579,1609.32,1564.347,1610.456,1561.089,1611.579z M1691.736,1277.466c-1.125,6.655-2.315,13.29-3.569,19.904
			C1688.497,1290.515,1689.768,1283.896,1691.736,1277.466z M1727.712,1215.403c24.743-35.146,45.925-72.749,63.15-112.121
			c1.126-2.553,2.242-5.33,1.587-8.076c-1.984-8.033-13.814-5.298-21.911-3.582c-23.756,4.987-44.499-16.452-56.951-37.27
			c-0.042-0.071-0.082-0.143-0.125-0.213c-1.142-26.866-3.283-53.594-6.403-80.083c25.64,11.749,48.261,30.126,64.905,52.894
			c4.376,6.006,12.473,7.808,18.898,4.129c6.156-3.539,12.345-6.971,18.629-10.253c5.502-2.917,8.58-9.084,7.401-15.176
			c-6.06-32.529-21.172-63.354-43.383-87.925c14.254,1.459,28.733,2.949,42.01,8.333c13.289,5.352,25.472,15.187,30.256,28.668
			c2.392,6.671,2.875,13.9,5.116,20.614c4.269,12.688,1.813,25.183,9.974,35.747c24.802,32.021-30.672,88.818,44.077,92.059
			c-25.521,50.926-93.38,98.476-194.561,137.158C1715.948,1231.826,1721.968,1223.568,1727.712,1215.403z M1523.128,413.72
			c-4.218,8.348-2.027,17.112,1.406,22.799c1.214,2.018,2.798,3.728,4.524,5.318c-11.558,9.669-25.056,18.892-40.367,27.597
			c-20.829-22.58-42.777-43.394-65.726-62.209c-59.226-48.567-124.016-83.122-191.603-102.634
			C1334.579,321.553,1433.687,358.452,1523.128,413.72z M823.733,342.463c47.119-17.188,95.542-29.855,144.874-37.938
			c-26.967,7.782-53.527,17.977-79.563,30.58c-64.551,31.247-124.346,76.435-177.76,134.311
			c-22.746-12.937-41.513-27.016-55.826-42.004C708.001,392.592,764.336,364.13,823.733,342.463z M421.01,665.328
			c-1.196,7.758-2.182,15.554-2.927,23.383c-2.048,21.601-2.338,43.48-7.047,64.651c-1.862,8.367-4.393,16.519-7.309,24.549
			c-10.798-11.612-19.606-23.51-26.323-35.615C390.465,715.959,405.011,690.266,421.01,665.328z M373.17,750.967
			c7.214,12.024,16.351,23.806,27.375,35.3c-7.648,19.238-17.08,37.918-24.634,57.241c-11.723,30.052-18.748,64.319-6.65,94.264
			c8.409,20.807,25.129,37.152,35.726,56.994c16.763,31.543,16.613,69.006,24.882,103.723c1.298,5.491,2.906,11.079,6.531,15.391
			c4.955,5.856,12.72,8.366,19.96,10.897c10.946,3.821,20.858,8.129,29.829,12.752c1.2,35.333,4.088,70.288,8.668,104.76
			c-105.7-39.648-175.998-88.863-200.968-141.59c0-0.233-0.004-0.465-0.004-0.698C293.885,978.143,321.073,859.271,373.17,750.967z
			 M294.086,1117.729c17.546,28.358,47.406,55.416,89.037,80.615c31.675,19.172,69.509,36.891,112.971,52.949
			c8.015,56.563,20.574,111.802,37.615,165.268c21.51,67.485,49.497,130.18,83.532,187.282
			c-117.016-43.297-204.584-100.731-247.959-162.972c-4.171-8.938-8.187-17.965-12.043-27.082
			C317.49,1319.813,296.28,1220.299,294.086,1117.729z M786.236,1842.777c-95.989-40.599-182.199-98.721-256.232-172.753
			c-58.358-58.356-106.823-124.284-144.62-196.599c50.225,54.27,133.096,103.529,238.492,141.353
			c12.937,20.953,26.7,41.132,41.281,60.482c56.398,74.843,122.099,133.616,195.276,174.689
			c35.096,19.698,71.208,34.895,108.11,45.549C906.013,1885.26,845.041,1867.648,786.236,1842.777z M1668.95,1671.066
			c-73.987,73.714-160.075,131.579-255.87,171.99c-58.596,24.718-119.342,42.233-181.634,52.434
			c36.723-10.603,72.664-25.701,107.599-45.258c73.029-40.884,138.638-99.398,195.002-173.919
			c14.878-19.671,28.907-40.206,42.082-61.544c105.39-37.818,188.25-87.064,238.471-141.316
			C1776.568,1546.204,1727.757,1612.479,1668.95,1671.066z M1841.872,1415.892c-3.59,8.42-7.322,16.76-11.181,25.026
			c-43.374,62.215-130.923,119.627-247.918,162.913c31.542-52.922,57.882-110.669,78.698-172.58
			c16.739-15.231,31.69-34.182,34.752-56.6c2.258-16.658-2.29-33.221-5.453-49.871c5.245-24.213,9.62-48.721,13.128-73.482
			c43.46-16.054,81.293-33.77,112.968-52.938c41.626-25.191,71.488-52.239,89.039-80.586
			C1903.692,1221.118,1882.183,1321.341,1841.872,1415.892z"/>
		<path d="M620.431,1102.111c23.797,9.795,51.926,4.458,75.366,15.069c5.483,2.449,10.569,5.756,16.22,7.953
			c5.609,2.156,12.034,3.118,17.581,0.774c5.525-2.344,9.586-8.79,7.702-14.504c-0.879-2.7-2.888-4.856-4.856-6.907
			c-15.823-16.241-49.854-35.559-67.288-44.914c-6.551-3.495-13.479-6.3-20.616-8.372c-7.074-2.051-12.892-3.516-18.313-2.03
			c-12.223,3.349-16.388,18.271-18.46,30.808c-0.586,3.453-1.13,7.032-0.188,10.381
			C609.212,1096.146,614.905,1099.809,620.431,1102.111z"/>
		<path d="M1176.439,480.029c-2.804,0.858-5.232,2.177-7.283,3.935c-5.756,4.939-11.637,10.904-19.213,11.197
			c-3.704,0.167-7.513-1.13-11.093-0.084c-4.793,1.36-7.618,6.739-7.346,11.7c0.314,4.981,3.077,9.481,6.404,13.185
			c7.283,8.016,17.664,13.164,28.443,14.044c10.82,0.9,21.892-2.428,30.389-9.125c4.5-3.537,13.018-11.281,9.648-27.459
			C1203.626,484.194,1189.373,476.094,1176.439,480.029z"/>
	</g>
</g>
</svg>
