<?xml version="1.0" encoding="UTF-8" standalone="no"?>
<!DOCTYPE svg PUBLIC "-//W3C//DTD SVG 1.1//EN" "http://www.w3.org/Graphics/SVG/1.1/DTD/svg11.dtd">
<svg width="100%" height="100%" viewBox="0 0 512 512" version="1.1" xmlns="http://www.w3.org/2000/svg" xmlns:xlink="http://www.w3.org/1999/xlink" xml:space="preserve" xmlns:serif="http://www.serif.com/" style="fill-rule:evenodd;clip-rule:evenodd;stroke-linejoin:round;stroke-miterlimit:2;">
    <g transform="matrix(0.1,0,0,-0.1,0,512)">
        <path d="M1875,5109C1853,5105 1732,5092 1605,5080C1334,5056 1329,5055 1224,5024C1122,4994 1069,4950 1001,4837C946,4746 920,4714 710,4480C543,4294 494,4227 439,4112C340,3906 284,3627 321,3522C344,3456 430,3438 481,3489C506,3515 510,3526 510,3577C510,3749 580,3982 675,4125C712,4180 792,4274 980,4482C1087,4600 1101,4618 1183,4747C1226,4814 1232,4819 1282,4833C1347,4852 1453,4866 1625,4880C1697,4886 1812,4898 1882,4907C2000,4923 2010,4923 2034,4907C2066,4885 2068,4852 2038,4814C2007,4776 2008,4719 2039,4686C2072,4651 2434,4445 2537,4403C2653,4356 2724,4353 2792,4392C2841,4422 2880,4483 2880,4533C2880,4548 2882,4560 2883,4560C2885,4560 2947,4538 3021,4510C3095,4483 3186,4453 3225,4444C3383,4408 3404,4400 3445,4356C3496,4303 3538,4223 3643,3975C3838,3519 3906,3390 4024,3263C4143,3134 4262,3081 4452,3072L4570,3067L4570,3041C4570,2983 4525,2927 4221,2615C4104,2494 3987,2368 3962,2335C3836,2167 3824,2035 3915,1805C3964,1681 3972,1618 3945,1554C3936,1533 3884,1474 3822,1414C3760,1355 3702,1289 3687,1262C3673,1236 3650,1166 3636,1105C3622,1045 3603,981 3594,964C3585,946 3550,912 3515,887C3440,833 3417,789 3400,675C3385,573 3358,528 3255,425C3120,289 2949,191 2873,205C2815,216 2782,255 2715,394C2633,563 2597,655 2549,815C2496,991 2467,1065 2402,1193C2322,1350 2321,1374 2396,1520L2455,1634L2455,1750C2455,1972 2406,2113 2278,2261C2237,2309 2198,2362 2191,2380C2184,2401 2182,2443 2186,2494C2195,2613 2161,2706 2076,2798C1961,2922 1804,2958 1580,2909C1384,2867 1349,2863 1230,2871C1113,2879 1034,2899 906,2953C838,2982 799,2977 763,2935C728,2896 732,2846 772,2806C847,2731 1085,2668 1295,2667C1407,2667 1444,2671 1562,2698C1764,2745 1841,2740 1916,2677C1971,2631 1984,2590 1985,2455C1986,2341 1987,2332 2017,2275C2034,2242 2080,2179 2119,2135C2158,2091 2197,2040 2205,2022C2227,1977 2249,1870 2256,1775L2262,1695L2215,1607C2151,1486 2139,1446 2139,1365C2139,1285 2165,1203 2225,1095C2273,1010 2301,937 2361,740C2441,480 2567,208 2650,116C2710,51 2784,10 2854,3C3007,-13 3231,107 3419,305C3531,424 3575,501 3594,615C3607,693 3613,708 3637,725C3652,736 3688,768 3716,796C3774,853 3799,909 3829,1050C3840,1099 3854,1150 3861,1162C3868,1175 3924,1235 3986,1295C4109,1415 4139,1465 4160,1580C4175,1660 4160,1734 4104,1878C4038,2044 4043,2115 4127,2219C4148,2244 4264,2369 4387,2495C4642,2760 4702,2830 4743,2919C4804,3048 4776,3176 4674,3236C4633,3260 4613,3264 4496,3271C4422,3275 4346,3285 4321,3294C4231,3327 4144,3412 4061,3548C4024,3610 3911,3858 3821,4073C3679,4416 3592,4538 3455,4589C3426,4600 3360,4619 3309,4631C3257,4643 3150,4677 3070,4707C2990,4737 2911,4761 2893,4762C2875,4762 2830,4752 2793,4739C2713,4713 2665,4670 2655,4617C2651,4597 2642,4580 2636,4580C2619,4580 2475,4654 2359,4723L2262,4780L2263,4853C2264,4917 2261,4932 2234,4980C2201,5040 2135,5092 2072,5110C2029,5122 1933,5121 1875,5109Z" style="fill:rgb(15,255,0);fill-rule:nonzero;"/>
        <path d="M459,3251C397,3189 439,3080 525,3080C572,3080 596,3094 616,3132C667,3231 538,3329 459,3251Z" style="fill:rgb(15,255,0);fill-rule:nonzero;"/>
        <path d="M4592,1794C4580,1786 4551,1742 4528,1697C4458,1556 4440,1536 4345,1489C4241,1439 4187,1383 4164,1301C4150,1256 4150,1238 4159,1201C4184,1107 4184,1102 4153,1053C4103,973 4095,942 4095,835C4095,721 4113,669 4170,612C4309,478 4486,519 4575,707C4604,767 4620,816 4731,1195L4813,1475L4780,1605C4743,1749 4729,1785 4701,1800C4672,1815 4618,1812 4592,1794ZM4570,1363C4565,1347 4526,1218 4485,1075C4389,749 4369,709 4318,750C4298,766 4295,777 4295,837C4295,890 4300,912 4316,935C4365,1004 4383,1054 4383,1115C4383,1148 4375,1192 4366,1212C4351,1247 4351,1251 4368,1268C4377,1277 4420,1302 4462,1323C4504,1344 4544,1367 4550,1375C4570,1399 4580,1392 4570,1363Z" style="fill:rgb(15,255,0);fill-rule:nonzero;"/>
    </g>
</svg>
