<?xml version="1.0" encoding="UTF-8" standalone="no"?>
<!DOCTYPE svg PUBLIC "-//W3C//DTD SVG 1.1//EN" "http://www.w3.org/Graphics/SVG/1.1/DTD/svg11.dtd">
<svg width="100%" height="100%" viewBox="0 0 512 512" version="1.1" xmlns="http://www.w3.org/2000/svg" xmlns:xlink="http://www.w3.org/1999/xlink" xml:space="preserve" xmlns:serif="http://www.serif.com/" style="fill-rule:evenodd;clip-rule:evenodd;stroke-linejoin:round;stroke-miterlimit:2;">
    <g transform="matrix(0.1,0,0,-0.1,0,512)">
        <path d="M3659,4897C3604,4876 3534,4814 3511,4766C3494,4732 3490,4704 3490,4618C3490,4472 3504,4446 3630,4363C3682,4329 3734,4295 3746,4287C3757,4278 3795,4203 3834,4111C3897,3962 3911,3937 4019,3792C4083,3706 4151,3623 4168,3608C4210,3573 4272,3556 4338,3563C4405,3570 4453,3600 4485,3654C4516,3706 4517,3759 4491,3884L4472,3973L4523,4069C4656,4318 4659,4332 4610,4485C4556,4653 4524,4680 4339,4710C4231,4728 4188,4741 4005,4816C3782,4907 3723,4921 3659,4897ZM3961,4681C4155,4601 4194,4589 4298,4574C4387,4560 4420,4551 4435,4535C4447,4524 4466,4477 4479,4429L4502,4343L4482,4296C4470,4271 4435,4204 4404,4149C4327,4012 4325,4000 4352,3859C4364,3795 4371,3736 4367,3727C4359,3706 4314,3695 4281,3706C4264,3712 4214,3770 4139,3869C4029,4014 4019,4031 3956,4185C3881,4367 3874,4376 3740,4460C3693,4489 3649,4520 3643,4528C3629,4544 3625,4675 3636,4705C3644,4724 3709,4770 3728,4770C3735,4770 3840,4730 3961,4681Z" style="fill:rgb(135,255,0);fill-rule:nonzero;"/>
        <path d="M2695,4760C2552,4754 2518,4749 2484,4732C2434,4707 2386,4654 2369,4606C2354,4564 2358,4565 2294,4585C2192,4617 2142,4620 1970,4605C1763,4586 1698,4569 1635,4522C1594,4491 1535,4407 1517,4355C1515,4349 1469,4354 1397,4369C1266,4396 1206,4394 1141,4360C1097,4338 1083,4309 1094,4265C1105,4223 1141,4214 1204,4235C1258,4253 1260,4253 1363,4232C1547,4193 1600,4207 1650,4306C1712,4430 1725,4437 1914,4456C2108,4476 2173,4475 2250,4451C2332,4425 2386,4425 2428,4450C2462,4471 2500,4524 2500,4551C2500,4559 2511,4576 2523,4588C2545,4609 2561,4611 2761,4619C2894,4625 2981,4625 2992,4619C3004,4613 3010,4598 3010,4577C3010,4537 2994,4521 2845,4415C2653,4278 2626,4242 2625,4125C2625,4066 2629,4047 2653,4008C2668,3982 2695,3950 2713,3936C2762,3899 2950,3810 2979,3810C3021,3810 3105,3855 3131,3891C3152,3921 3155,3935 3154,4007L3152,4088L3193,4098C3245,4112 3262,4104 3417,4002C3502,3946 3544,3911 3556,3888C3583,3837 3650,3629 3650,3599C3650,3554 3612,3524 3503,3480C3409,3443 3396,3440 3301,3440C3158,3440 3150,3435 3028,3267C2972,3190 2921,3111 2914,3091C2907,3071 2901,3011 2900,2957C2900,2795 2882,2787 2744,2889C2692,2927 2634,2964 2614,2970C2570,2985 2521,2976 2484,2948C2447,2919 2342,2754 2334,2714C2318,2628 2368,2560 2469,2530C2534,2511 2539,2507 2596,2433C2628,2391 2670,2347 2689,2336C2734,2310 2793,2312 2857,2342L2910,2367L3017,2349C3077,2338 3140,2330 3158,2330C3222,2330 3252,2398 3207,2444C3189,2462 3159,2470 3045,2488C2900,2511 2877,2510 2812,2476C2795,2467 2775,2460 2767,2460C2759,2460 2725,2496 2691,2540C2626,2624 2602,2642 2526,2661C2501,2667 2478,2676 2475,2680C2472,2684 2493,2722 2520,2765L2570,2841L2623,2804C2651,2783 2694,2751 2718,2733C2775,2691 2822,2676 2881,2683C2946,2691 2984,2712 3011,2757C3032,2790 3035,2810 3038,2905C3039,2966 3043,3024 3045,3036C3048,3047 3088,3110 3135,3176L3221,3295L3338,3301C3450,3306 3460,3308 3569,3355C3696,3409 3739,3441 3769,3504C3804,3576 3798,3637 3737,3807C3708,3890 3672,3972 3655,3994C3619,4041 3356,4217 3291,4237C3236,4254 3133,4241 3082,4209C3024,4175 3008,4136 3013,4047C3020,3941 3013,3938 2890,4000C2837,4027 2787,4056 2779,4066C2758,4092 2761,4163 2785,4190C2796,4202 2867,4257 2942,4312C3018,4366 3093,4427 3109,4447C3183,4536 3164,4674 3069,4737C3021,4769 2964,4772 2695,4760Z" style="fill:rgb(135,255,0);fill-rule:nonzero;"/>
        <path d="M765,4119C712,4070 690,4010 690,3914L690,3851L607,3797C509,3733 485,3696 485,3609C486,3501 572,3410 674,3410C731,3410 1040,3498 1072,3523C1087,3535 1137,3580 1184,3623L1269,3702L1325,3681C1397,3654 1423,3655 1488,3685C1518,3699 1548,3710 1555,3710C1570,3710 1610,3617 1610,3581C1610,3567 1594,3469 1573,3363C1537,3176 1537,3171 1553,3128C1562,3104 1602,3046 1641,3000C1680,2953 1721,2896 1732,2872C1742,2849 1764,2761 1780,2678C1796,2595 1816,2517 1825,2504C1848,2469 1882,2450 1955,2431C2017,2416 2025,2410 2169,2273C2252,2195 2334,2124 2353,2117C2371,2109 2454,2092 2538,2079C2633,2065 2690,2052 2690,2044C2690,2038 2674,2012 2654,1986C2635,1961 2612,1924 2604,1905C2586,1860 2575,1763 2584,1716C2588,1695 2636,1612 2699,1517C2784,1388 2815,1350 2843,1337C2862,1328 2884,1320 2892,1320C2928,1319 2930,1305 2905,1242C2871,1158 2872,1106 2910,1046C2943,994 2944,996 2886,926C2847,880 2845,875 2845,810C2845,753 2849,738 2868,718C2889,695 2890,685 2890,549C2890,470 2895,387 2901,365C2917,307 2952,266 3012,236C3116,184 3182,209 3257,327C3378,517 3384,538 3365,698C3358,757 3354,808 3357,813C3359,817 3409,853 3468,892C3526,931 3587,977 3602,994C3618,1011 3646,1067 3666,1118C3686,1169 3712,1225 3724,1243C3736,1260 3793,1310 3850,1353C3908,1396 3968,1443 3984,1458C4023,1495 4060,1576 4060,1626C4060,1675 4064,1679 4160,1719C4310,1783 4342,1859 4274,1992C4222,2095 4136,2156 4026,2167C3958,2174 3930,2156 3930,2104C3930,2068 3967,2030 4004,2030C4045,2029 4108,1992 4134,1953C4178,1886 4175,1880 4083,1840C3959,1787 3920,1739 3920,1639C3920,1589 3897,1563 3769,1469C3636,1371 3600,1329 3560,1231C3496,1074 3506,1086 3388,1009C3217,895 3200,867 3219,726C3239,581 3236,564 3174,459C3143,407 3114,361 3110,357C3098,343 3043,377 3036,402C3033,415 3030,495 3030,580C3030,729 3029,737 3005,772C2991,792 2980,811 2980,815C2980,818 3000,845 3025,875C3091,957 3097,1020 3044,1100L3017,1141L3043,1206C3074,1280 3077,1318 3054,1365C3033,1411 3009,1430 2951,1449C2903,1464 2899,1469 2810,1605L2718,1745L2724,1798C2729,1839 2740,1863 2775,1911C2828,1983 2844,2032 2830,2079C2805,2168 2765,2189 2555,2220L2406,2243L2254,2387C2105,2527 2045,2569 1990,2570C1976,2570 1960,2574 1953,2578C1947,2582 1930,2648 1915,2725C1884,2893 1856,2958 1769,3063C1673,3180 1677,3160 1716,3355C1759,3572 1759,3613 1719,3713C1685,3798 1652,3833 1591,3850C1551,3860 1526,3855 1448,3822C1402,3801 1401,3801 1351,3821C1293,3843 1239,3845 1207,3829C1195,3822 1140,3776 1085,3725L985,3633L837,3591C756,3569 681,3550 670,3550C647,3550 616,3603 625,3629C628,3639 659,3664 693,3685C813,3758 830,3784 830,3899C830,3978 831,3979 870,4025C915,4077 919,4096 889,4134C858,4174 819,4169 765,4119Z" style="fill:rgb(135,255,0);fill-rule:nonzero;"/>
        <path d="M3513,2400C3489,2390 3470,2361 3470,2332C3470,2295 3502,2270 3565,2259C3598,2253 3635,2242 3647,2234C3679,2213 3708,2217 3735,2245C3771,2280 3767,2313 3723,2349C3689,2377 3671,2383 3555,2405C3544,2407 3525,2404 3513,2400Z" style="fill:rgb(135,255,0);fill-rule:nonzero;"/>
    </g>
</svg>
