<?xml version="1.0" encoding="UTF-8" standalone="no"?>
<!DOCTYPE svg PUBLIC "-//W3C//DTD SVG 1.1//EN" "http://www.w3.org/Graphics/SVG/1.1/DTD/svg11.dtd">
<svg width="100%" height="100%" viewBox="0 0 512 512" version="1.1" xmlns="http://www.w3.org/2000/svg" xmlns:xlink="http://www.w3.org/1999/xlink" xml:space="preserve" xmlns:serif="http://www.serif.com/" style="fill-rule:evenodd;clip-rule:evenodd;stroke-linejoin:round;stroke-miterlimit:2;">
    <g transform="matrix(0.1,0,0,-0.1,0,512)">
        <path d="M3573,4610C3522,4580 3507,4539 3502,4420L3497,4315L3402,4214L3307,4112L3210,4145C3011,4212 2934,4203 2730,4088L2665,4051L2580,4105C2484,4166 2427,4183 2360,4170C2286,4155 2285,4156 2266,4215C2247,4278 2213,4323 2173,4339C2133,4355 1823,4410 1772,4410C1682,4410 1628,4365 1564,4236C1534,4173 1528,4154 1533,4119L1538,4077L1485,4084C1418,4092 1359,4071 1329,4029C1304,3993 1276,3845 1282,3779C1285,3750 1298,3717 1317,3689L1348,3645L1311,3577L1274,3510L1217,3561L1160,3611L1166,3698L1173,3785L1095,3900C1005,4032 985,4057 948,4076C912,4095 878,4094 800,4072L735,4053L640,4098C490,4168 397,4167 297,4094C203,4026 187,3939 247,3821C301,3716 331,3687 435,3641C506,3609 525,3596 523,3582C519,3544 480,3453 448,3406C333,3237 329,3219 360,3057C388,2914 391,2907 455,2847L509,2795L500,2725C479,2571 491,2515 560,2425C645,2315 723,2304 889,2380C949,2407 1004,2431 1010,2432C1018,2434 1028,2416 1035,2387C1061,2292 1113,2246 1190,2253C1225,2256 1264,2274 1363,2334C1499,2417 1538,2451 1557,2502C1590,2595 1564,2655 1433,2782C1355,2857 1324,2880 1296,2886C1259,2892 1190,2888 1160,2877C1150,2873 1131,2889 1103,2923L1061,2976L1076,3027C1084,3055 1096,3083 1103,3088C1110,3093 1150,3100 1194,3102C1261,3105 1275,3109 1291,3129C1316,3159 1315,3195 1290,3220C1273,3237 1257,3240 1183,3240C1018,3239 971,3197 925,3007C912,2958 929,2913 986,2843C1054,2758 1109,2726 1165,2735C1187,2739 1219,2744 1235,2747C1262,2751 1273,2743 1348,2667C1427,2585 1438,2568 1422,2544C1414,2530 1187,2390 1182,2395C1180,2396 1173,2421 1165,2450C1144,2530 1087,2580 1018,2580C999,2580 934,2556 867,2525C801,2495 739,2470 729,2470C707,2470 666,2510 643,2554C630,2580 629,2599 640,2705C655,2848 651,2858 570,2934C519,2981 518,2984 500,3080C477,3197 480,3213 548,3302C605,3377 661,3510 667,3585C674,3663 648,3694 521,3756C420,3806 416,3810 383,3869C343,3939 345,3961 393,3991C441,4020 483,4015 592,3965C646,3940 703,3917 718,3914C733,3911 778,3918 817,3929L890,3949L960,3847C998,3792 1030,3738 1030,3729C1030,3719 1025,3689 1019,3661C1003,3587 1027,3541 1128,3452C1214,3376 1240,3364 1296,3373C1356,3383 1386,3414 1441,3523C1500,3641 1501,3671 1449,3747C1417,3794 1416,3798 1436,3916C1442,3946 1442,3947 1488,3939C1514,3935 1551,3936 1572,3941C1640,3959 1692,4045 1677,4119C1673,4139 1680,4161 1703,4200C1721,4229 1743,4258 1752,4263C1764,4271 1809,4267 1922,4246C2006,4231 2085,4216 2097,4213C2114,4209 2124,4193 2140,4146C2173,4045 2240,4000 2328,4021C2405,4039 2430,4033 2523,3974C2640,3899 2672,3896 2760,3945C2969,4061 3007,4067 3187,4005C3340,3953 3351,3956 3483,4093C3629,4245 3633,4252 3640,4376C3643,4433 3649,4482 3652,4486C3658,4491 3875,4451 3933,4434C3977,4421 4009,4379 4036,4297C4051,4252 4071,4204 4080,4190C4090,4176 4136,4143 4183,4117L4268,4069L4280,3967C4286,3911 4294,3857 4297,3846C4306,3812 4208,3835 4104,3891C3970,3963 3939,3958 3833,3848C3791,3803 3769,3772 3765,3749C3757,3707 3792,3548 3819,3504C3846,3460 3902,3436 3959,3445C4065,3461 4062,3462 4097,3390C4152,3276 4155,3259 4141,3162C4126,3054 4108,3014 4036,2920C3953,2813 3961,2816 3803,2824C3678,2830 3664,2829 3624,2810C3592,2794 3576,2777 3560,2745C3541,2705 3539,2687 3542,2582C3546,2435 3555,2419 3660,2375C3724,2349 3736,2340 3759,2299L3784,2252L3712,2144L3654,2148C3601,2151 3591,2149 3553,2121C3502,2084 3477,2039 3477,1983C3477,1950 3488,1925 3533,1855C3580,1782 3590,1760 3590,1723C3590,1690 3587,1681 3578,1686C3521,1720 3453,1783 3404,1847L3345,1924L3348,2031C3353,2192 3326,2228 3183,2251L3110,2263L3110,2359C3110,2514 3086,2543 2926,2586C2760,2629 2694,2603 2624,2465L2585,2388L2483,2339C2331,2266 2311,2216 2371,2063L2401,1985L2344,1877C2313,1818 2284,1770 2281,1770C2277,1770 2252,1800 2224,1837L2174,1905L2157,2045C2137,2204 2136,2294 2150,2371C2174,2497 2089,2610 1969,2610C1940,2610 1919,2617 1898,2635C1862,2665 1817,2667 1790,2640C1761,2611 1765,2576 1802,2534C1841,2489 1884,2470 1943,2470C2011,2470 2016,2458 2002,2337C1991,2245 1992,2216 2014,2049C2027,1947 2043,1853 2050,1839C2066,1810 2144,1705 2179,1667C2231,1611 2329,1611 2382,1667C2426,1715 2540,1942 2540,1983C2540,2003 2527,2053 2510,2095C2494,2137 2480,2173 2480,2176C2480,2178 2523,2201 2575,2226C2679,2276 2698,2295 2748,2396C2765,2430 2787,2460 2796,2464C2805,2467 2848,2461 2891,2449L2970,2428L2970,2331C2970,2181 3001,2142 3137,2116L3205,2104L3205,1999C3205,1879 3209,1870 3302,1747C3360,1671 3477,1572 3535,1550C3602,1525 3681,1558 3711,1623C3749,1708 3731,1815 3661,1919C3607,1999 3611,2012 3687,2004C3763,1996 3797,2019 3868,2123C3935,2223 3937,2260 3883,2362C3842,2441 3792,2484 3722,2503L3679,2514L3682,2600L3685,2685L3823,2681C3955,2678 3962,2679 4015,2705C4061,2727 4082,2748 4145,2831C4240,2957 4248,2974 4271,3084C4301,3229 4297,3277 4245,3404C4221,3464 4191,3524 4178,3538C4129,3591 4046,3612 3971,3590C3952,3585 3935,3581 3934,3583C3933,3584 3925,3616 3917,3654L3901,3722L3939,3762L3976,3803L4059,3755C4130,3714 4155,3705 4224,3697C4318,3685 4347,3690 4389,3726C4440,3768 4444,3804 4422,3974C4407,4082 4397,4129 4383,4149C4372,4163 4325,4197 4278,4225C4194,4273 4192,4276 4175,4330C4139,4443 4090,4514 4020,4550C3977,4572 3706,4630 3647,4630C3623,4630 3591,4622 3573,4610Z" style="fill:rgb(3,255,68);fill-rule:nonzero;"/>
        <path d="M1512,3117C1486,3090 1484,3053 1505,3023C1513,3011 1529,2972 1540,2936C1569,2845 1623,2813 1670,2860C1696,2886 1695,2921 1665,3010C1625,3129 1563,3172 1512,3117Z" style="fill:rgb(3,255,68);fill-rule:nonzero;"/>
        <path d="M4213,2159C4152,2141 4129,2103 4059,1903L3993,1715L3944,1690C3864,1649 3830,1574 3845,1472C3851,1431 3860,1417 3922,1356C4001,1280 4039,1260 4102,1260C4163,1260 4190,1281 4190,1330C4190,1376 4164,1400 4114,1400C4076,1400 3980,1480 3980,1512C3980,1542 3999,1570 4020,1570C4044,1570 4097,1614 4116,1652C4124,1668 4156,1754 4186,1843C4244,2011 4258,2037 4284,2027C4298,2022 4300,2005 4298,1933C4296,1858 4299,1838 4319,1802L4341,1759L4291,1711C4259,1682 4240,1656 4240,1642C4240,1612 4283,1570 4313,1570C4349,1570 4445,1653 4464,1701C4485,1752 4484,1775 4460,1829C4445,1862 4440,1894 4440,1962C4440,2035 4436,2059 4419,2090C4381,2158 4301,2184 4213,2159Z" style="fill:rgb(3,255,68);fill-rule:nonzero;"/>
        <path d="M2857,1595C2785,1570 2750,1520 2750,1444C2750,1378 2832,1209 2897,1143C2945,1094 3133,960 3199,928C3224,916 3260,910 3316,910C3458,910 3532,966 3559,1096C3572,1160 3564,1191 3510,1281C3455,1374 3417,1401 3332,1409C3256,1416 3266,1412 3146,1498C3010,1596 2933,1622 2857,1595ZM3070,1378C3198,1287 3233,1271 3303,1270C3349,1270 3351,1269 3385,1215C3422,1159 3428,1124 3409,1087C3392,1055 3381,1050 3317,1050C3260,1050 3256,1052 3133,1138C2998,1231 2966,1265 2919,1369C2882,1451 2882,1460 2923,1460C2948,1460 2983,1440 3070,1378Z" style="fill:rgb(3,255,68);fill-rule:nonzero;"/>
        <path d="M4610,1540C4530,1517 4505,1491 4460,1384C4381,1196 4375,1156 4414,1075C4445,1009 4554,904 4601,895C4649,886 4755,905 4795,930C4861,971 4880,1068 4835,1134C4821,1154 4810,1174 4810,1178C4810,1182 4830,1212 4855,1245C4927,1341 4928,1406 4858,1485C4789,1563 4733,1575 4610,1540ZM4750,1395L4773,1371L4733,1318C4711,1289 4688,1254 4681,1241C4662,1206 4672,1120 4699,1081C4712,1063 4721,1047 4719,1046C4717,1044 4697,1040 4674,1037C4636,1031 4631,1033 4587,1078C4522,1144 4521,1163 4574,1290L4617,1395L4661,1407C4722,1423 4724,1423 4750,1395Z" style="fill:rgb(3,255,68);fill-rule:nonzero;"/>
        <path d="M4115,1030C4071,1020 4044,1001 4008,953C3969,901 3936,897 3883,937C3820,985 3671,980 3605,928C3530,869 3500,769 3536,694C3566,631 3614,611 3937,530C4138,480 4194,478 4276,520C4449,607 4498,713 4428,849C4375,952 4339,987 4262,1009C4168,1036 4149,1038 4115,1030ZM4234,870C4260,861 4320,769 4320,738C4320,705 4203,630 4150,630C4119,630 3851,694 3728,732C3653,754 3646,767 3685,805C3719,840 3779,839 3827,803C3856,781 3876,775 3930,772C4015,767 4060,786 4103,847C4133,888 4137,890 4172,885C4192,882 4220,876 4234,870Z" style="fill:rgb(3,255,68);fill-rule:nonzero;"/>
    </g>
</svg>
