<?xml version="1.0" encoding="UTF-8" standalone="no"?>
<!DOCTYPE svg PUBLIC "-//W3C//DTD SVG 1.1//EN" "http://www.w3.org/Graphics/SVG/1.1/DTD/svg11.dtd">
<svg width="100%" height="100%" viewBox="0 0 512 512" version="1.1" xmlns="http://www.w3.org/2000/svg" xmlns:xlink="http://www.w3.org/1999/xlink" xml:space="preserve" xmlns:serif="http://www.serif.com/" style="fill-rule:evenodd;clip-rule:evenodd;stroke-linejoin:round;stroke-miterlimit:2;">
    <g transform="matrix(0.1,0,0,-0.1,0,512)">
        <path d="M4362,4804C4254,4775 4202,4740 4036,4585C3782,4349 3649,4217 3634,4188C3617,4155 3616,4095 3632,4035C3644,3991 3643,3989 3617,3962C3594,3940 3581,3935 3542,3936C3489,3936 3430,3965 3430,3990C3430,3999 3442,4022 3456,4041C3524,4131 3537,4207 3500,4281C3472,4335 3441,4352 3250,4414C3042,4483 2967,4500 2876,4500C2747,4500 2650,4459 2546,4361C2474,4292 2423,4221 2330,4060C2196,3829 2138,3765 1996,3693C1918,3654 1849,3587 1786,3490C1700,3359 1688,3280 1743,3209C1804,3129 1907,3101 2013,3137L2070,3157L2070,3101C2071,2953 2100,2848 2155,2793C2191,2756 2203,2750 2239,2750C2322,2750 2401,2815 2477,2946C2531,3037 2565,3121 2581,3197C2596,3272 2584,3323 2540,3374L2510,3408L2565,3573C2628,3767 2649,3811 2689,3839C2723,3864 2772,3866 2790,3845C2810,3821 2794,3774 2739,3687C2666,3574 2648,3527 2647,3456C2647,3353 2687,3284 2766,3254C2832,3229 2893,3239 3006,3294C3059,3319 3112,3340 3125,3340L3148,3340L3131,3273C3096,3139 3044,3058 2969,3019C2927,2998 2866,2994 2824,3010C2802,3019 2788,3016 2751,2998C2672,2959 2640,2890 2640,2757C2640,2655 2625,2626 2556,2594C2481,2560 2423,2551 2221,2544L2043,2537L2044,2653C2045,2787 2036,2808 1959,2848C1876,2891 1743,2864 1700,2795C1684,2769 1680,2745 1680,2674C1680,2625 1676,2580 1672,2575C1668,2569 1635,2543 1598,2517C1526,2466 1475,2409 1442,2344C1419,2299 1405,2285 1358,2261C1315,2240 1300,2192 1324,2155C1373,2081 1495,2132 1569,2258C1611,2330 1645,2365 1727,2424C1805,2479 1824,2517 1830,2625L1835,2715L1895,2715L1891,2599C1887,2451 1906,2408 1990,2387C2032,2376 2426,2399 2503,2416C2598,2438 2677,2479 2724,2530C2778,2590 2793,2632 2795,2730C2796,2777 2798,2822 2798,2832C2800,2846 2812,2848 2878,2847C2946,2847 2966,2851 3024,2878C3155,2939 3236,3058 3285,3262C3308,3359 3309,3372 3296,3403C3289,3422 3267,3448 3249,3461C3219,3482 3204,3485 3130,3485C3049,3484 3040,3482 2951,3437C2899,3411 2849,3390 2840,3390C2814,3390 2800,3411 2800,3452C2800,3496 2811,3521 2879,3624C2935,3711 2954,3771 2948,3841C2942,3897 2923,3928 2866,3974C2836,3999 2818,4005 2766,4008C2685,4013 2644,3999 2585,3948C2515,3887 2496,3849 2425,3635C2345,3396 2344,3370 2401,3304C2435,3264 2440,3253 2434,3226C2423,3171 2381,3079 2335,3005C2283,2922 2264,2902 2249,2917C2231,2935 2221,3099 2231,3224C2242,3356 2234,3384 2184,3396C2151,3404 2124,3391 2055,3336C1989,3282 1931,3263 1888,3281C1852,3296 1855,3317 1905,3396C1961,3484 2008,3527 2093,3572C2236,3648 2330,3755 2483,4020C2651,4311 2772,4386 2989,4335C3107,4307 3361,4219 3367,4204C3370,4195 3352,4160 3326,4121C3271,4041 3261,3997 3284,3935C3315,3855 3411,3793 3520,3783C3623,3773 3716,3820 3766,3906C3789,3945 3792,3958 3787,4013C3784,4047 3778,4086 3775,4100C3769,4123 3793,4148 4017,4359C4153,4487 4282,4603 4303,4616C4375,4662 4432,4670 4712,4669L4970,4668L4970,4475C4970,4303 4972,4280 4988,4260C5014,4227 5068,4230 5098,4265C5119,4291 5120,4297 5120,4531L5120,4771L5095,4795L5071,4820L4743,4819C4492,4819 4403,4815 4362,4804Z" style="fill:rgb(42,36,254);fill-rule:nonzero;"/>
        <path d="M4992,4037L4970,4014L4970,2711C4970,1995 4967,1410 4963,1412C4783,1504 4640,1560 4588,1560C4511,1560 4467,1499 4467,1390C4466,1260 4523,1165 4639,1107C4730,1062 4744,1039 4745,938L4745,857L4658,840C4561,822 4530,802 4530,759C4530,719 4539,701 4569,686C4591,674 4609,675 4694,691C4801,711 4841,730 4874,773C4892,797 4896,819 4898,905C4904,1085 4862,1169 4729,1235C4653,1274 4631,1300 4623,1360L4617,1400L4661,1385C4685,1376 4778,1331 4868,1285C4957,1238 5040,1200 5051,1200C5062,1200 5082,1211 5095,1225L5120,1249L5120,4011L5095,4035C5064,4067 5021,4068 4992,4037Z" style="fill:rgb(25,20,241);fill-rule:nonzero;"/>
        <path d="M863,2251C789,2216 743,2115 753,2010C757,1980 771,1915 786,1865C824,1736 831,1685 817,1642C790,1561 735,1564 494,1661C398,1700 308,1730 289,1730C242,1730 170,1692 144,1653C123,1621 98,1541 33,1290C-8,1129 -9,1056 33,975C80,882 186,802 311,766C385,744 567,710 608,710C689,710 747,760 786,863C818,951 862,1019 904,1048C922,1060 963,1075 996,1080C1093,1097 1098,1099 1134,1130C1158,1151 1172,1175 1180,1209L1191,1257L1343,1257C1483,1256 1502,1258 1578,1284C1623,1299 1665,1308 1670,1305C1688,1294 1728,1215 1770,1110C1814,1000 1864,900 1919,814C1937,785 1956,745 1960,724C1968,689 1967,683 1942,663C1906,633 1863,613 1815,603C1782,597 1772,588 1757,558C1739,522 1739,520 1759,476C1785,417 1868,334 1927,308C2036,260 2194,321 2275,442C2311,496 2328,510 2356,510C2396,510 2431,533 2451,572C2497,661 2456,755 2334,838C2295,865 2261,928 2210,1075C2187,1141 2152,1224 2133,1258L2097,1322L2136,1301C2158,1290 2254,1234 2350,1178L2525,1074L2525,980C2525,895 2528,880 2552,838C2567,813 2597,778 2619,761C2649,737 2659,721 2664,689C2679,598 2727,554 2804,563C2884,572 2973,591 3000,605C3069,640 3077,707 3025,810C3006,848 2990,882 2990,885C2990,888 3021,890 3058,890C3117,890 3133,894 3175,921C3239,962 3339,1063 3374,1121C3393,1155 3407,1205 3425,1306C3463,1520 3455,1500 3503,1500C3552,1500 3606,1529 3622,1565C3633,1590 3650,1599 3650,1580C3650,1574 3665,1562 3684,1554C3746,1524 3780,1539 3885,1645C3972,1732 4034,1779 4047,1766C4057,1756 4027,1699 3996,1668C3979,1651 3941,1621 3913,1603C3884,1585 3853,1559 3845,1546C3788,1459 3846,1313 3945,1294C3972,1289 4005,1294 4061,1310C4156,1337 4180,1332 4180,1284C4180,1265 4178,1250 4176,1250C4174,1250 4145,1243 4113,1235C4081,1227 3978,1212 3883,1200C3682,1177 3633,1167 3577,1138C3513,1106 3489,1084 3440,1013C3407,965 3379,937 3336,911C3223,843 3199,735 3265,602C3305,523 3376,438 3424,413C3475,385 3585,393 3727,434C3900,483 3924,486 3995,461C4097,425 4145,435 4272,521C4362,581 4380,599 4380,632C4380,666 4341,710 4310,710C4284,710 4243,689 4167,638C4135,616 4101,598 4092,598C4083,597 4048,605 4016,615C3938,638 3863,631 3701,585C3632,566 3555,550 3529,550C3484,550 3480,552 3447,598C3361,716 3360,749 3441,796C3484,821 3509,847 3549,905C3626,1015 3638,1020 3945,1055C4248,1089 4320,1129 4328,1269C4334,1369 4310,1418 4239,1453C4175,1486 4112,1488 4035,1461C4005,1450 3978,1445 3975,1450C3972,1455 3994,1475 4024,1495C4159,1585 4222,1711 4190,1829C4172,1895 4130,1930 4068,1930C3994,1930 3920,1889 3820,1794C3741,1718 3734,1713 3714,1726C3653,1767 3547,1747 3513,1689C3498,1664 3490,1660 3449,1660C3356,1660 3324,1606 3285,1385C3271,1303 3254,1223 3248,1208C3243,1193 3204,1149 3164,1110L3090,1040L3004,1040C2908,1040 2862,1024 2835,983C2808,943 2813,900 2853,815C2874,772 2889,736 2888,735C2886,734 2869,730 2850,726C2815,720 2814,720 2802,764C2795,792 2778,820 2754,841C2734,860 2709,883 2699,893C2683,907 2680,925 2680,1000C2680,1158 2672,1166 2349,1354C2156,1467 2122,1483 2083,1483C2033,1483 1998,1462 1963,1410C1928,1359 1933,1314 1984,1216C2009,1169 2045,1085 2066,1028C2134,836 2183,756 2268,698L2313,667L2274,647C2224,622 2186,587 2150,530C2101,454 2016,421 1970,458C1956,469 1947,480 1950,482C1953,484 1990,512 2032,543C2119,607 2126,621 2116,713C2109,778 2079,854 2032,922C1992,981 1966,1034 1903,1185C1795,1448 1730,1494 1550,1434C1472,1409 1454,1407 1320,1408C1240,1409 1161,1405 1143,1399C1102,1386 1054,1331 1040,1281C1030,1242 1029,1242 963,1230C815,1205 716,1113 654,942C639,901 621,866 614,863C595,856 353,908 302,931C197,977 140,1056 154,1137C169,1219 262,1556 274,1568C284,1578 319,1568 462,1510C651,1434 729,1418 806,1439C863,1454 914,1496 947,1555C972,1599 975,1615 975,1690C974,1758 967,1796 941,1880C905,1995 897,2077 919,2104C931,2118 948,2120 1016,2118C1085,2116 1102,2118 1119,2134C1146,2158 1146,2210 1121,2241C1103,2263 1093,2265 1003,2268C923,2270 897,2267 863,2251Z" style="fill:rgb(25,20,241);fill-rule:nonzero;"/>
    </g>
</svg>
