<?xml version="1.0" encoding="UTF-8" standalone="no"?>
<!DOCTYPE svg PUBLIC "-//W3C//DTD SVG 1.1//EN" "http://www.w3.org/Graphics/SVG/1.1/DTD/svg11.dtd">
<svg width="100%" height="100%" viewBox="0 0 512 512" version="1.1" xmlns="http://www.w3.org/2000/svg" xmlns:xlink="http://www.w3.org/1999/xlink" xml:space="preserve" xmlns:serif="http://www.serif.com/" style="fill-rule:evenodd;clip-rule:evenodd;stroke-linejoin:round;stroke-miterlimit:2;">
    <g transform="matrix(0.1,0,0,-0.1,0,512)">
        <path d="M3380,4994C3335,4974 3294,4935 3267,4885C3246,4847 3245,4832 3245,4618C3245,4365 3246,4363 3321,4312C3354,4290 3361,4289 3522,4292C3717,4296 3726,4299 3775,4396C3795,4434 3817,4461 3838,4474L3872,4493L4034,4331C4123,4243 4204,4170 4214,4170C4261,4170 4299,4210 4300,4260C4300,4284 3611,4969 3565,4991C3516,5014 3429,5015 3380,4994ZM3630,4734L3758,4608L3712,4567C3687,4544 3658,4506 3648,4483L3629,4440L3400,4440L3400,4634C3400,4824 3401,4829 3422,4844C3473,4880 3495,4868 3630,4734Z" style="fill:rgb(64,196,255);fill-rule:nonzero;"/>
        <path d="M2736,4340C2644,4294 2600,4217 2600,4102C2600,4016 2608,3996 2650,3981C2712,3960 2750,4001 2750,4091C2750,4170 2779,4209 2838,4210C2860,4210 2879,4202 2895,4185C2920,4161 2920,4159 2920,3973C2920,3820 2923,3780 2935,3763C2944,3751 3101,3617 3284,3466C3627,3183 3686,3128 3725,3050C3783,2934 3785,2917 3785,2610C3785,2303 3780,2263 3725,2129C3698,2061 3480,1700 3467,1700C3457,1700 3106,1974 3051,2024C2996,2075 2980,2121 2980,2235C2980,2386 2985,2396 3116,2530C3218,2634 3230,2650 3230,2682C3230,2725 3202,2753 3159,2753C3134,2753 3110,2734 3010,2635C2849,2474 2837,2449 2832,2268C2825,2023 2843,1995 3158,1744C3280,1647 3380,1564 3380,1560C3380,1543 3273,1458 3215,1430C3119,1382 3028,1368 2855,1372C2719,1376 2700,1378 2648,1402C2560,1443 2526,1474 2443,1589C2336,1737 2333,1740 2289,1740C2261,1740 2247,1734 2236,1718C2205,1674 2216,1644 2305,1520C2400,1388 2460,1329 2547,1282C2648,1229 2719,1217 2925,1222C3089,1226 3112,1229 3185,1254C3385,1323 3470,1405 3661,1715C3844,2013 3835,1996 3868,2080C3929,2234 3935,2284 3935,2620C3935,2925 3935,2925 3908,3005C3879,3091 3833,3174 3777,3242C3757,3266 3591,3409 3406,3560L3071,3835L3070,4010C3070,4158 3067,4191 3051,4225C3028,4274 2977,4324 2928,4344C2876,4366 2784,4364 2736,4340Z" style="fill:rgb(64,196,255);fill-rule:nonzero;"/>
        <path d="M1455,4215C1391,4198 1307,4165 1272,4143C1158,4072 233,3390 188,3343C116,3270 66,3187 33,3085C10,3014 6,2985 2,2823C-2,2631 6,2549 41,2450C51,2420 129,2271 213,2120C445,1701 462,1688 787,1682C1078,1677 1103,1687 1320,1905L1455,2040L1929,2040L2002,1943C2066,1857 2079,1845 2109,1842C2151,1838 2190,1871 2190,1911C2190,1944 2037,2164 2002,2179C1988,2186 1873,2190 1694,2190C1466,2190 1404,2187 1382,2176C1367,2168 1288,2094 1205,2011C1018,1823 1028,1827 787,1832C621,1835 613,1836 569,1862C513,1895 501,1912 357,2170C204,2444 182,2489 165,2562C145,2645 145,2901 165,2993C182,3074 229,3165 287,3230C327,3275 1240,3945 1355,4015C1443,4067 1513,4080 1719,4080L1899,4080L1919,4054C1937,4031 1940,4013 1940,3921L1940,3816L2103,3652L2267,3489L2489,3492C2765,3496 2750,3486 2750,3655C2750,3753 2747,3771 2729,3794C2703,3827 2650,3830 2620,3800C2604,3784 2600,3767 2600,3710L2600,3640L2325,3640L2208,3758L2091,3875L2088,3976C2085,4068 2082,4081 2055,4125C2033,4161 2010,4182 1971,4202L1918,4230L1711,4229C1571,4229 1489,4224 1455,4215Z" style="fill:rgb(64,196,255);fill-rule:nonzero;"/>
        <path d="M1375,3406C1359,3398 1306,3352 1258,3303C1182,3224 1170,3208 1170,3178C1170,3135 1198,3107 1241,3107C1265,3107 1286,3121 1348,3183C1391,3226 1430,3260 1435,3260C1440,3260 1470,3234 1502,3203L1559,3146L1520,3103C1473,3053 1469,3020 1505,2985C1548,2941 1575,2951 1667,3042L1749,3124L1834,3042C1897,2981 1924,2960 1944,2960C1983,2960 2005,2975 2019,3009C2037,3050 2019,3079 1917,3177C1817,3272 1778,3290 1710,3266L1668,3252L1601,3321C1508,3415 1447,3438 1375,3406Z" style="fill:rgb(64,196,255);fill-rule:nonzero;"/>
        <path d="M4536,2097C4500,2061 4502,2019 4538,1988C4554,1976 4605,1943 4652,1916L4738,1867L4709,1816C4636,1692 4620,1652 4620,1598C4621,1462 4743,1355 4874,1374C4950,1386 5007,1433 5062,1529C5115,1624 5125,1660 5116,1724C5108,1772 5068,1841 5031,1866C4968,1910 4612,2112 4588,2117C4568,2121 4555,2116 4536,2097ZM4957,1724C4967,1709 4970,1691 4966,1674C4956,1636 4895,1543 4871,1530C4827,1507 4770,1546 4770,1598C4770,1619 4794,1665 4856,1767L4870,1789L4906,1768C4925,1757 4948,1737 4957,1724Z" style="fill:rgb(64,196,255);fill-rule:nonzero;"/>
        <path d="M995,1546C979,1538 953,1519 938,1504C903,1466 847,1344 824,1255C814,1217 804,1183 803,1181C801,1178 751,1224 692,1282C629,1345 573,1391 556,1396C515,1406 476,1374 472,1326C469,1290 474,1283 580,1175L692,1062L658,1055C595,1041 459,991 416,966C277,885 276,777 413,697C456,672 570,629 649,610L692,599L581,486C482,386 470,369 470,338C470,299 490,275 533,265C558,258 571,268 680,375C757,451 801,488 804,479C806,471 816,436 825,400C851,300 911,180 954,143C1005,98 1064,97 1113,140C1156,178 1214,295 1243,405L1266,490L1365,389C1420,334 1477,282 1492,274C1544,247 1600,282 1600,343C1600,366 1578,394 1489,485L1378,599L1422,610C1613,659 1738,732 1756,806C1778,894 1682,973 1475,1036C1426,1051 1383,1065 1380,1067C1378,1069 1426,1121 1488,1183C1612,1307 1622,1329 1574,1377C1531,1420 1501,1405 1374,1279L1263,1169L1251,1227C1232,1311 1184,1432 1150,1479C1101,1546 1048,1569 995,1546ZM1106,1181C1139,1050 1139,1043 1082,987L1034,940L982,993L931,1045L945,1115C965,1209 986,1279 1011,1337L1033,1385L1057,1330C1071,1300 1093,1233 1106,1181ZM875,880L924,830L875,780C828,732 823,729 785,735C688,750 490,813 490,830C490,848 739,927 805,929C817,930 846,909 875,880ZM1371,906C1476,879 1580,842 1580,832C1580,816 1420,763 1306,740L1248,728L1194,781L1141,833L1188,882C1215,910 1243,930 1256,930C1268,930 1320,919 1371,906ZM1130,599C1130,559 1085,392 1058,330L1033,275L1013,322C988,377 966,452 946,546L931,615L983,667L1034,720L1082,673C1115,640 1130,618 1130,599Z" style="fill:rgb(64,196,255);fill-rule:nonzero;"/>
        <path d="M4400,1323C4363,1303 4042,1073 4001,1036C3969,1007 3930,923 3930,880C3930,792 3985,705 4065,669C4114,646 4188,645 4236,665C4256,673 4359,743 4466,821C4694,986 4715,1011 4715,1120C4715,1200 4683,1261 4619,1306C4564,1344 4456,1352 4400,1323ZM4549,1164C4577,1128 4575,1106 4543,1071C4512,1039 4219,824 4184,808C4130,783 4069,834 4086,891C4093,914 4135,950 4280,1055C4484,1204 4510,1214 4549,1164Z" style="fill:rgb(64,196,255);fill-rule:nonzero;"/>
        <path d="M2918,1086C2865,1067 2835,1046 2807,1008C2719,890 2761,730 2895,669C3040,602 3210,717 3210,880C3210,921 3178,995 3147,1028C3094,1086 2987,1112 2918,1086ZM3014,939C3027,932 3044,914 3051,897C3086,813 2956,762 2918,845C2903,879 2917,921 2950,937C2981,953 2983,953 3014,939Z" style="fill:rgb(64,196,255);fill-rule:nonzero;"/>
    </g>
</svg>
